<?xml version="1.0" encoding="UTF-8"?>
<svg width="17px" height="17px" viewBox="0 0 17 17" version="1.1" xmlns="http://www.w3.org/2000/svg" xmlns:xlink="http://www.w3.org/1999/xlink">
    <title>97C8DE22-6F62-4D83-9BEA-8489E76F9323</title>
    <defs>
        <filter id="filter-1">
            <feColorMatrix in="SourceGraphic" type="matrix" values="0 0 0 0 1.000000 0 0 0 0 1.000000 0 0 0 0 1.000000 0 0 0 1.000000 0"></feColorMatrix>
        </filter>
    </defs>
    <g id="Navigation---Mega-menu" stroke="none" stroke-width="1" fill="none" fill-rule="evenodd">
        <g id="Homepage---Nav---3rd-level-Categories" transform="translate(-1511.000000, -81.000000)">
            <g id="header/white-blue-nav" transform="translate(-29.000000, -1.025174)">
                <g id="np_information_2603599_000000" transform="translate(1531.000000, 72.025174)" filter="url(#filter-1)">
                    <g transform="translate(9.826087, 10.974826)">
                        <path d="M8,7.11111111 C7.50931968,7.11111111 7.11111111,7.44305645 7.11111111,7.85208592 L7.11111111,10.8152741 C7.11111111,11.2243035 7.50931968,11.5555556 8,11.5555556 C8.49068032,11.5555556 8.88888889,11.2243035 8.88888889,10.8152741 L8.88888889,7.85208592 C8.88888889,7.65555338 8.79475155,7.46735858 8.62812967,7.32847913 C8.46150778,7.18959969 8.23576456,7.11111111 8,7.11111111 L8,7.11111111 Z" id="Path" fill="#000000" fill-rule="nonzero"></path>
                        <path d="M8.88888889,5.33333333 C8.88888889,6.51851852 7.11111111,6.51851852 7.11111111,5.33333333 C7.11111111,4.14814815 8.88888889,4.14814815 8.88888889,5.33333333" id="Path" fill="#000000" fill-rule="nonzero"></path>
                        <path d="M8,0 C5.8782759,0 3.843717,0.842968225 2.343669,2.343669 C0.842968225,3.843621 0,5.8782759 0,8 C0,10.1217241 0.842968225,12.156283 2.343669,13.656331 C3.843621,15.1570318 5.8782759,16 8,16 C10.1217241,16 12.156283,15.1570318 13.656331,13.656331 C15.1570318,12.156379 16,10.1217241 16,8 C16,5.8782759 15.1570318,3.843717 13.656331,2.343669 C12.156379,0.842968225 10.1217241,0 8,0 L8,0 Z M8,14.3995392 C6.30281271,14.3995392 4.67466641,13.7253144 3.47470481,12.5253528 C2.27474321,11.3253912 1.60051838,9.69728329 1.60051838,8.0000576 C1.60051838,6.30283191 2.27474321,4.67472401 3.47470481,3.47476241 C4.67466641,2.27480081 6.30277431,1.60057598 8,1.60057598 C9.69722569,1.60057598 11.3253336,2.27480081 12.5252952,3.47476241 C13.7252568,4.67472401 14.3994816,6.30283191 14.3994816,8.0000576 C14.3994816,9.69728329 13.7252568,11.3253912 12.5252952,12.5253528 C11.3253336,13.7253144 9.69722569,14.3995392 8,14.3995392 Z" id="Shape" fill="#000000" fill-rule="nonzero"></path>
                    </g>
                </g>
            </g>
        </g>
    </g>
</svg>