<?xml version="1.0" encoding="UTF-8"?>
<svg width="17px" height="17px" viewBox="0 0 17 17" version="1.1" xmlns="http://www.w3.org/2000/svg" xmlns:xlink="http://www.w3.org/1999/xlink">
    <title>close-blue</title>
    <g id="Page-1" stroke="none" stroke-width="1" fill="none" fill-rule="evenodd">
        <g id="close-blue" transform="translate(0.790424, 1.461494)" fill="#0072BC" fill-rule="nonzero" stroke="#0072BC">
            <path d="M11.6133497,3.72071605 L4.76948362,-2.83608147 C4.37132408,-3.19526455 3.76155912,-3.19526455 3.38665035,-2.83608147 C3.01174158,-2.47689839 3.01174158,-1.89269524 3.38665035,-1.51125166 L9.55099912,4.39453122 L3.38665035,10.3003141 C3.01174158,10.6594972 3.01174158,11.2659608 3.38665035,11.6251439 C3.76155912,11.984327 4.37133974,11.984327 4.76948362,11.6251439 L11.6133497,5.04554586 C11.9882584,4.68636278 11.9882584,4.10215964 11.6133497,3.72071605 Z" id="Path" transform="translate(7.500000, 4.394531) rotate(90.000000) translate(-7.500000, -4.394531) "></path>
            <path d="M11.61335,9.93165325 L4.76948395,3.37485576 C4.37132441,3.01567268 3.76155945,3.01567268 3.38665068,3.37485576 C3.01174191,3.73403884 3.01174191,4.31824198 3.38665068,4.69968557 L9.55099945,10.6054684 L3.38665068,16.5112513 C3.01174191,16.8704344 3.01174191,17.476898 3.38665068,17.8360811 C3.76155945,18.1952642 4.37134007,18.1952642 4.76948395,17.8360811 L11.61335,11.256483 C11.9882587,10.8973 11.9882587,10.3130968 11.61335,9.93165325 Z" id="Path-Copy" transform="translate(7.500000, 10.605468) rotate(-90.000000) translate(-7.500000, -10.605468) "></path>
        </g>
    </g>
</svg>