<?xml version="1.0" encoding="UTF-8"?>
<svg width="23px" height="21px" viewBox="0 0 23 21" version="1.1" xmlns="http://www.w3.org/2000/svg" xmlns:xlink="http://www.w3.org/1999/xlink">
    <title>C3C2507D-8E18-45E9-8B33-600ED13ECE63</title>
    <g id="Navigation---Mobile-Menu-+-country-switcher" stroke="none" stroke-width="1" fill="none" fill-rule="evenodd" fill-opacity="0">
        <g id="Mobile-header" transform="translate(-211.000000, -178.000000)" fill="#ffffff" fill-rule="nonzero" stroke="#ffffff" stroke-width="2">
            <g id="BUTTONS" transform="translate(8.500000, 166.500000)">
                <g id="button/nav_donate" transform="translate(175.500000, 0.000000)">
                    <g id="icons/heart" transform="translate(27.000000, 11.797708)">
                        <path d="M16.8178813,1.00795111 C17.7010719,0.952784821 18.4861183,1.19163065 19.1358409,1.53529947 C20.1150625,2.05325587 20.8059313,2.80723592 21.0278456,3.21055417 C21.5742707,4.22144249 21.6732523,5.48577687 21.473537,6.68598918 C21.2597072,7.97102382 20.6999825,9.20266684 19.8811579,9.98955035 L19.8811579,9.98955035 L11.2849218,18.5857864 L2.68843266,9.98929725 C1.86861978,9.20266082 1.30840521,7.97107209 1.09419272,6.68620833 C0.894055533,5.48576933 0.992869049,4.22122739 1.53625899,3.21640755 C1.76185503,2.80562368 2.42016585,2.04425217 3.37787193,1.52568402 C4.00286248,1.18727101 4.7626821,0.953661221 5.63043048,1.00786295 C7.05410248,1.09678906 8.70492704,1.94853655 10.5277221,4.05329201 C10.8172066,4.38755554 11.0760316,4.71301184 11.306162,5.02911651 C11.5254102,4.70675582 11.7743622,4.37534638 12.0551472,4.03486257 C13.779428,1.94397545 15.3963637,1.09674265 16.8178813,1.00795111 Z" id="Path"></path>
                    </g>
                </g>
            </g>
        </g>
    </g>
</svg>