<?xml version="1.0" encoding="UTF-8"?>
<svg width="34px" height="34px" viewBox="0 0 34 34" version="1.1" xmlns="http://www.w3.org/2000/svg" xmlns:xlink="http://www.w3.org/1999/xlink">
    <title>0A341425-DBDF-4CFB-A5E2-241F1CC6ED10</title>
    <g id="Search-+-Search-Results" stroke="none" stroke-width="1" fill="none" fill-rule="evenodd">
        <g id="Search_1" transform="translate(-1298.000000, -74.000000)" fill="#0072BC" stroke="#0072BC" stroke-width="0.5">
            <g id="Header/Default" transform="translate(0.000000, 9.000000)">
                <g id="ICON/Globe_Blue" transform="translate(1299.000000, 66.000000)">
                    <path d="M22.3395556,11.7831111 L29.2124444,11.7831111 C29.9843556,14.2005333 30.0768,16.7832889 29.4791111,19.2497778 L22.4355556,19.2497778 C22.5244444,18.1831111 22.5706667,17.1164444 22.5706667,16 C22.5713778,14.5948444 22.4942222,13.1904 22.3395556,11.7937778 L22.3395556,11.7831111 Z M9.56444444,19.2497778 L2.52088889,19.2497778 C1.9232,16.7832889 2.01564444,14.2005333 2.78755556,11.7831111 L9.66044444,11.7831111 C9.50542222,13.1832889 9.42826667,14.5909333 9.42933333,16 C9.42933333,17.1128889 9.47555556,18.2008889 9.56444444,19.2497778 L9.56444444,19.2497778 Z M11.5626621,16 C11.5619556,14.5941333 11.6448,13.1896889 11.8115556,11.7937778 L20.1884444,11.7937778 C20.3552,13.1896889 20.4380444,14.5941333 20.4373379,16 C20.4373379,17.0986667 20.384,18.1902222 20.2876444,19.2497778 L11.712,19.2497778 C11.616,18.1902222 11.5626621,17.0986667 11.5626621,16 L11.5626621,16 Z M16,2.13333333 C16.6222222,2.13333333 17.7244444,3.2 18.6734222,5.49688889 C19.2064,6.84195556 19.6042667,8.23644444 19.8613333,9.66044444 L12.1386667,9.66044444 C12.3957333,8.23644444 12.7932444,6.84195556 13.3262222,5.49688889 C14.2755556,3.2 15.3777778,2.13333333 16,2.13333333 L16,2.13333333 Z M16,29.8666667 C15.3777778,29.8666667 14.2755556,28.8 13.3262222,26.5031111 C12.6808889,24.8536889 12.2275556,23.136 11.9751111,21.3831111 L20.0248889,21.3831111 C19.7724444,23.136 19.3191111,24.8536889 18.6734222,26.5031111 C17.7244444,28.8 16.6222222,29.8666667 16,29.8666667 L16,29.8666667 Z M28.3271111,9.66044444 L22.0444444,9.66044444 C21.5320889,6.76622222 20.6755556,4.32711111 19.6053333,2.60977778 C23.3724444,3.63342222 26.5368889,6.19128889 28.3271111,9.66044444 L28.3271111,9.66044444 Z M12.4231111,2.60977778 C11.3564444,4.31644444 10.496,6.76622222 9.984,9.66044444 L3.67288889,9.66044444 C5.4656,6.18915556 8.63431111,3.63057778 12.4053333,2.60977778 L12.4231111,2.60977778 Z M3.23911111,21.3831111 L9.80977778,21.3831111 C10.2968889,24.6933333 11.232,27.4986667 12.4053333,29.3902222 C8.27626667,28.2737778 4.88995556,25.3216 3.22133333,21.3831111 L3.23911111,21.3831111 Z M19.5946667,29.3902222 C20.7822222,27.4986667 21.7031111,24.6933333 22.1902222,21.3831111 L28.7786667,21.3831111 C27.1100444,25.3216 23.7237333,28.2737778 19.5946667,29.3902222 L19.5946667,29.3902222 Z M0,16 C0,24.8362667 7.16337778,32 16,32 C24.8362667,32 32,24.8362667 32,16 C32,7.16337778 24.8362667,0 16,0 C7.16337778,0 0,7.16337778 0,16 Z" id="Fill-1"></path>
                </g>
            </g>
        </g>
    </g>
</svg>