<?xml version="1.0" encoding="UTF-8"?>
<svg width="32px" height="32px" viewBox="0 0 32 32" version="1.1" xmlns="http://www.w3.org/2000/svg" xmlns:xlink="http://www.w3.org/1999/xlink">
    <title>5FAD02BC-DA44-43E9-B62B-D4A7106C1C29</title>
    <g id="Navigation---Simple-Menu" stroke="none" stroke-width="1" fill="none" fill-rule="evenodd">
        <g id="Homepage---Simple-Nav" transform="translate(-1240.000000, -74.000000)" fill="#0072BC" fill-rule="nonzero">
            <g id="header/white-blue-nav" transform="translate(-29.000000, -1.025174)">
                <g id="Group" transform="translate(1269.000000, 75.025174)">
                    <path d="M13.9574468,0 C21.6659318,0 27.9148936,6.24896179 27.9148936,13.9574468 C27.9148936,21.6659318 21.6659318,27.9148936 13.9574468,27.9148936 C6.24896179,27.9148936 0,21.6659318 0,13.9574468 C0,6.24896179 6.24896179,0 13.9574468,0 Z M13.9574468,4.08510638 C8.50510375,4.08510638 4.08510638,8.50510375 4.08510638,13.9574468 C4.08510638,19.4097899 8.50510375,23.8297872 13.9574468,23.8297872 C19.4097899,23.8297872 23.8297872,19.4097899 23.8297872,13.9574468 C23.8297872,8.50510375 19.4097899,4.08510638 13.9574468,4.08510638 Z" id="Oval"></path>
                    <path d="M21.0237819,21.0237819 C21.7895419,20.2580219 23.0120528,20.2273915 23.8143528,20.9318907 L23.9123883,21.0237819 L31.40175,28.5131436 C32.1994167,29.3108102 32.1994167,30.6040834 31.40175,31.40175 C30.63599,32.16751 29.4134791,32.1981404 28.6111791,31.4936412 L28.5131436,31.40175 L21.0237819,23.9123883 C20.2261153,23.1147217 20.2261153,21.8214485 21.0237819,21.0237819 Z" id="Line"></path>
                </g>
            </g>
        </g>
    </g>
</svg>